<svg width="50" height="50" viewBox="0 0 50 50" fill="none" xmlns="http://www.w3.org/2000/svg">
<g clip-path="url(#clip0_734:83)">
<path d="M23.5818 34.6028C23.5584 34.6497 23.535 34.6872 23.5818 34.6028V34.6028ZM43.0444 27.8059C41.4725 27.8059 39.9225 28.1653 38.5131 28.8606C38.0522 27.9309 37.5756 27.1184 37.4975 26.509C37.4037 25.7981 37.3022 25.3762 37.4115 24.5325C37.5209 23.6887 38.0131 22.4934 38.0053 22.4075C37.9975 22.3215 37.8959 21.8919 36.8881 21.884C35.8803 21.8762 35.0131 22.0794 34.9115 22.345C34.7332 22.8303 34.5947 23.3293 34.4975 23.8372C34.3178 24.7512 32.4834 28.0169 31.4443 29.72C31.1006 29.0559 30.8115 28.47 30.749 28.0012C30.6553 27.2903 30.5537 26.8684 30.6631 26.0247C30.7725 25.1809 31.2647 23.9856 31.2568 23.8997C31.249 23.8137 31.1475 23.384 30.1412 23.3762C29.135 23.3684 28.2662 23.5715 28.1646 23.8372C28.0631 24.1028 27.9537 24.7278 27.7506 25.3294C27.5475 25.9309 25.1021 31.3684 24.4631 32.7825C24.135 33.5012 23.8537 34.0794 23.6506 34.47C23.6193 34.5325 23.5959 34.5715 23.5803 34.6028C23.6037 34.5637 23.6193 34.5247 23.6193 34.5403C23.4475 34.8762 23.3459 35.0637 23.3459 35.0637V35.0715C23.2131 35.3215 23.0646 35.5481 22.9943 35.5481C22.9474 35.5481 22.8459 34.8919 23.0178 33.9934C23.385 32.1028 24.2521 29.1653 24.2443 29.0637C24.2365 29.009 24.4084 28.5012 23.674 28.2278C22.9631 27.97 22.7053 28.3997 22.6428 28.3997C22.5803 28.3997 22.5334 28.5559 22.5334 28.5559C22.5334 28.5559 23.3225 25.2434 21.0178 25.2434C19.5803 25.2434 17.5803 26.8215 16.5974 28.2512C15.9803 28.5872 14.6443 29.3137 13.2381 30.0872L11.6209 30.9778C11.5818 30.9387 11.5506 30.8997 11.5115 30.8606C8.71461 27.8762 3.5521 25.7669 3.77085 21.759C3.84898 20.2981 4.35679 16.4622 13.699 11.8059C21.3553 7.99342 27.4756 9.04029 28.5303 11.3684C30.0459 14.6887 25.2568 20.8684 17.3068 21.759C14.2756 22.095 12.6834 20.9231 12.2849 20.4856C11.8709 20.0247 11.8084 20.0012 11.6521 20.0872C11.3943 20.2278 11.5584 20.634 11.6521 20.8762C11.8865 21.4934 12.8631 22.5872 14.5271 23.134C15.9881 23.6106 19.5412 23.8762 23.8365 22.2122C28.6631 20.3528 32.4209 15.1731 31.3178 10.8372C30.1959 6.43092 22.8896 4.98561 15.9818 7.43873C11.8646 8.89967 7.41305 11.1965 4.21148 14.1887C0.406785 17.7512 -0.201028 20.8528 0.0489723 22.1497C0.939599 26.7512 7.2818 29.7512 9.8193 31.97L9.46774 32.1653C8.1943 32.7981 3.35992 35.3294 2.14898 38.0012C0.781786 41.0325 2.37554 43.2044 3.42085 43.5012C6.68648 44.4075 10.0287 42.7747 11.8256 40.095C13.6224 37.4153 13.4037 33.9153 12.5756 32.3215C12.5677 32.2981 12.5521 32.2825 12.5443 32.259C13.4818 31.7038 14.4272 31.1621 15.3803 30.634C15.0677 31.4778 14.8412 32.4934 14.724 33.9622C14.5834 35.6809 15.2943 37.9075 16.2162 38.7825C16.6224 39.1653 17.1131 39.1731 17.4193 39.1731C18.4974 39.1731 18.9818 38.2825 19.5209 37.22C20.1849 35.9231 20.7709 34.4153 20.7709 34.4153C20.7709 34.4153 20.0365 38.4934 22.0443 38.4934C22.7787 38.4934 23.5131 37.5481 23.8412 37.0637V37.0715C23.8412 37.0715 23.8568 37.0403 23.8959 36.9778C23.974 36.8606 24.0131 36.7903 24.0131 36.7903V36.7669C24.31 36.259 24.9584 35.095 25.935 33.1731C27.2006 30.6887 28.41 27.5872 28.41 27.5872C28.5271 28.2684 28.6896 28.9419 28.8943 29.6028C29.1131 30.345 29.574 31.1575 29.9412 31.9465C29.6443 32.3528 29.4646 32.5872 29.4646 32.5872C29.4646 32.5934 29.4678 32.5981 29.4725 32.6028C29.2381 32.9153 28.9725 33.2512 28.699 33.5794C27.7006 34.7669 26.5115 36.1262 26.3553 36.5169C26.1678 36.9778 26.2146 37.3215 26.574 37.5872C26.8396 37.7903 27.3084 37.8215 27.8006 37.7825C28.699 37.72 29.3318 37.5012 29.6365 37.3606C30.1985 37.1593 30.7297 36.8805 31.2146 36.5325C32.1912 35.8137 32.785 34.7825 32.7303 33.4231C32.699 32.6731 32.4568 31.9231 32.16 31.22C32.2459 31.095 32.3397 30.9622 32.4256 30.8294C33.4423 29.3124 34.3583 27.7303 35.1678 26.0934C35.285 26.7747 35.4459 27.4481 35.6522 28.109C35.8397 28.7419 36.2068 29.4372 36.5428 30.1169C35.0897 31.2965 34.1912 32.6637 33.8803 33.5622C33.3022 35.2262 33.7553 35.9762 34.6068 36.1481C34.9897 36.2262 35.5365 36.0465 35.9428 35.8747C36.5459 35.6731 37.1147 35.3809 37.6287 35.0075C38.6053 34.2887 39.5506 33.2809 39.4865 31.9137C39.4631 31.2965 39.2912 30.6794 39.0647 30.0856C40.2912 29.57 41.885 29.2887 43.9162 29.5231C48.2662 30.0309 49.1178 32.7497 48.9537 33.8825C48.7897 35.0153 47.8756 35.6481 47.5709 35.8356C47.2662 36.0231 47.1725 36.0934 47.1959 36.234C47.235 36.4372 47.3756 36.4294 47.6334 36.3825C47.9928 36.32 49.9147 35.4606 50.0006 33.359C50.1256 30.7028 47.5709 27.7809 43.0475 27.8044L43.0444 27.8059ZM9.51461 39.1106C8.07711 40.6809 6.06305 41.2747 5.19586 40.7747C4.26617 40.234 4.63336 37.9231 6.40523 36.2497C7.48336 35.234 8.87399 34.2965 9.79586 33.7184C10.0068 33.5934 10.3115 33.4059 10.6865 33.1794C10.717 33.1598 10.7482 33.1416 10.7802 33.1247C10.8506 33.0778 10.9287 33.0387 11.0068 32.9919C11.6537 35.3669 11.0302 37.4606 9.51461 39.109V39.1106ZM20.0115 31.97C19.5115 33.1965 18.4584 36.3215 17.8162 36.1575C17.2693 36.0169 16.9334 33.634 17.7068 31.2903C18.0974 30.1106 18.9256 28.7044 19.4178 28.1575C20.2068 27.2747 21.074 26.9934 21.2771 27.345C21.5506 27.8059 20.324 31.2044 20.0115 31.97ZM28.6834 36.1106C28.4725 36.22 28.2771 36.2903 28.1834 36.2356C28.1131 36.1965 28.2693 36.0481 28.2693 36.0481C28.2693 36.0481 29.3553 34.884 29.785 34.3528C30.035 34.0403 30.324 33.6731 30.6365 33.2669C30.6365 33.3059 30.6443 33.345 30.6443 33.3919C30.635 34.7903 29.2912 35.7356 28.6818 36.1106H28.6834ZM35.3709 34.5872C35.2147 34.4778 35.2381 34.1106 35.7615 32.97C35.9647 32.5247 36.4334 31.7747 37.2459 31.0559C37.3381 31.3278 37.3881 31.6122 37.3943 31.8997C37.3865 33.6575 36.1287 34.3137 35.3709 34.5872V34.5872Z" fill="#353535"/>
</g>
<defs>
<clipPath id="clip0_734:83">
<rect width="50" height="50" fill="white"/>
</clipPath>
</defs>
</svg>
