<svg width="24" height="24" viewBox="0 0 24 24" fill="none" xmlns="http://www.w3.org/2000/svg">
<g clip-path="url(#clip0_1605_5)">
<path d="M12.752 1.072C12.8143 0.900778 12.8164 0.713404 12.7577 0.540876C12.6991 0.368347 12.5833 0.221005 12.4296 0.123224C12.2758 0.0254439 12.0933 -0.0169147 11.9122 0.00315631C11.7311 0.0232273 11.5622 0.104525 11.4336 0.2336L5.0336 6.6336C4.96158 6.70576 4.90401 6.79102 4.864 6.8848L0.0640005 18.0848C0.0118143 18.2065 -0.00932895 18.3393 0.00246835 18.4713C0.0142656 18.6032 0.0586343 18.7301 0.131592 18.8407C0.204551 18.9512 0.303815 19.0419 0.420477 19.1046C0.537139 19.1673 0.667548 19.2001 0.800001 19.2H5.6C5.76441 19.1999 5.92481 19.1492 6.05936 19.0547C6.19392 18.9603 6.2961 18.8266 6.352 18.672L12.752 1.072ZM15.928 3.6688C15.8633 3.52581 15.758 3.40502 15.6251 3.32145C15.4923 3.23788 15.3378 3.19523 15.1809 3.19881C15.024 3.20239 14.8716 3.25205 14.7427 3.34159C14.6138 3.43113 14.5141 3.55661 14.456 3.7024L11.256 11.7024C11.2051 11.83 11.1879 11.9686 11.2061 12.1048C11.2244 12.241 11.2773 12.3702 11.36 12.48L15.4944 17.992L6.9472 20.84C6.76622 20.8995 6.6124 21.0216 6.51342 21.1844C6.41445 21.3472 6.37681 21.5399 6.40729 21.728C6.43776 21.916 6.53434 22.087 6.67966 22.2102C6.82498 22.3334 7.00949 22.4007 7.2 22.4H23.2C23.3339 22.4 23.4656 22.3663 23.5831 22.3022C23.7005 22.2381 23.8001 22.1455 23.8725 22.0329C23.9449 21.9204 23.988 21.7914 23.9977 21.6579C24.0074 21.5244 23.9834 21.3906 23.928 21.2688L15.928 3.6688Z" fill="black"/>
</g>
<defs>
<clipPath id="clip0_1605_5">
<rect width="24" height="24" fill="white"/>
</clipPath>
</defs>
</svg>
