<svg width="50" height="50" viewBox="0 0 50 50" fill="none" xmlns="http://www.w3.org/2000/svg">
<g clip-path="url(#clip0_534:12)">
<path d="M27.7105 11.6688C26.4022 8.48542 26.5855 4.90417 28.4751 2.02292L29.8876 0C27.2751 4.89583 29.7626 10.9083 33.7626 14.0604C34.833 14.8981 36.0262 15.5657 37.3001 16.0396C37.6418 16.1646 38.0293 16.2979 38.3835 16.3875C42.8543 17.5125 46.498 16.7354 48.6668 13.4938C48.6001 13.5938 48.5147 13.7521 48.4064 13.9521C47.4397 15.7438 44.6105 20.9875 36.4064 19.3417C36.2501 19.3104 36.1001 19.2583 35.9501 19.2104L35.8168 19.1646L35.721 19.1333C35.6768 19.118 35.6323 19.1035 35.5876 19.0896C35.4661 19.0478 35.3453 19.004 35.2251 18.9583C31.923 17.7 29.0918 15.05 27.7105 11.6688V11.6688Z" fill="#353535"/>
<path d="M16.9166 6.17904C13.7145 10.9603 13.8895 17.3624 16.3874 22.4207C16.8493 23.362 17.3799 24.2679 17.9749 25.1311C18.4104 25.7832 18.8895 26.5061 19.4499 27.0103C19.6812 27.2749 19.9228 27.5311 20.1687 27.7832L20.3103 27.929L20.3583 27.977C20.607 28.2284 20.8619 28.4736 21.1229 28.7124L21.1249 28.7145L21.1291 28.7186C21.444 29.0036 21.7671 29.2794 22.0979 29.5457L22.1812 29.6124C22.4729 29.8457 22.7708 30.0749 23.077 30.2936L23.0895 30.302L23.1041 30.3124C23.202 30.3832 23.302 30.452 23.402 30.5186L23.5124 30.5936C23.5778 30.6369 23.6424 30.6813 23.7062 30.727C23.9249 30.8728 24.1458 31.0124 24.3708 31.1499L24.4333 31.1853L24.4645 31.2061C24.7058 31.35 24.9496 31.4896 25.1958 31.6249L25.2604 31.6582L25.3437 31.704C25.452 31.7624 25.5603 31.8228 25.6728 31.879L25.7353 31.9103C26.0576 32.0744 26.3841 32.23 26.7145 32.377L26.7812 32.404C27.0913 32.5406 27.4046 32.6698 27.7208 32.7915L27.7833 32.8145C27.9979 32.8978 28.2124 32.9728 28.4291 33.0478L28.5374 33.0853L28.7208 33.1457C28.802 33.1707 28.8833 33.1999 28.9624 33.227C29.1895 33.3061 29.4166 33.3832 29.6541 33.4249C46.1833 36.2665 49.9999 23.0582 49.9999 23.0582C46.5603 28.1999 39.8978 30.654 32.7895 28.7374C32.4748 28.6513 32.1622 28.5576 31.852 28.4561C31.7687 28.4311 31.6853 28.402 31.602 28.3728L31.5708 28.3624C31.3513 28.2887 31.1332 28.2109 30.9166 28.129L30.9103 28.1249C30.5509 27.9888 30.1952 27.8429 29.8437 27.6874L29.727 27.6353C29.3174 27.4501 28.9144 27.2507 28.5187 27.0374L28.4312 26.9915L28.1812 26.8582C27.9529 26.7307 27.7272 26.5987 27.5041 26.4624C27.0634 26.1933 26.6326 25.9083 26.2124 25.6082C25.909 25.3892 25.611 25.1627 25.3187 24.929L25.2458 24.8686C25.2032 24.8342 25.1608 24.7994 25.1187 24.7645C22.0062 22.2145 19.5395 18.729 18.3687 14.779C17.1395 10.679 17.4041 6.07904 19.5333 2.3457L16.9166 6.17904Z" fill="#353535"/>
<path d="M3.17523 11.7434C-1.24977 18.3475 -0.699767 26.9413 2.68148 33.958C2.74398 34.0934 2.81273 34.2267 2.8794 34.358L2.9294 34.458L2.9919 34.5809C3.0443 34.6901 3.09988 34.7978 3.15857 34.9038L3.18565 34.9559L3.33148 35.2267L3.36273 35.283C3.4669 35.4746 3.57523 35.6663 3.68565 35.858L3.72107 35.9205C3.88802 36.2117 4.06238 36.4986 4.24398 36.7809L4.28148 36.8434L4.4044 37.0371C4.5794 37.308 4.75857 37.5809 4.94607 37.8496V37.8517C4.9505 37.8583 4.95537 37.8645 4.96065 37.8705L5.01065 37.9392L5.05232 37.9975C5.21482 38.2267 5.3794 38.4559 5.54815 38.6809L5.73565 38.9267C6.14401 39.4559 6.56638 39.9741 7.00232 40.4809L7.01482 40.4955L7.02523 40.5059L7.03982 40.5225C7.48181 41.0205 7.93897 41.5047 8.41065 41.9746L8.47315 42.0371L8.62107 42.183C8.85717 42.4137 9.09749 42.6402 9.3419 42.8621L9.41065 42.9246L9.46482 42.9705C9.72555 43.2032 9.98946 43.4324 10.2565 43.658L10.3731 43.7559C10.5502 43.9017 10.7294 44.0475 10.9106 44.1892L11.1961 44.4163C11.3961 44.5684 11.5961 44.7184 11.7981 44.8642L11.8315 44.8892L12.019 45.0267L12.0773 45.0684C12.2606 45.2017 12.4461 45.3267 12.6336 45.4517L12.6627 45.4725C12.7468 45.5291 12.8301 45.5868 12.9127 45.6455C13.2605 45.8737 13.6127 46.0953 13.969 46.31L14.0815 46.3767C14.3969 46.563 14.7157 46.7436 15.0377 46.9184L15.1481 46.9788L15.2711 47.0455C15.394 47.1121 15.5148 47.1788 15.6398 47.2434L15.6919 47.2684L15.7544 47.2996L15.8252 47.3351C15.8669 47.3559 15.9106 47.3767 15.9544 47.4017C16.2127 47.5288 16.4711 47.6538 16.7336 47.7767L16.8315 47.8205L16.8981 47.8517C17.5492 48.1482 18.2115 48.4192 18.8836 48.6642L18.9044 48.6705L18.9919 48.7038C19.4668 48.8746 19.9462 49.033 20.4294 49.1788C20.6711 49.26 20.9148 49.3392 21.1648 49.3871C42.5752 53.4413 48.794 36.033 48.794 36.033C43.5711 43.0955 34.3002 44.96 25.5148 42.885C25.1843 42.8048 24.8575 42.7096 24.5357 42.5996L24.2898 42.5225C23.9732 42.4225 23.6586 42.3142 23.3461 42.2038L23.2169 42.1559C22.9356 42.0517 22.6607 41.9475 22.3836 41.835L22.1502 41.7392C21.8481 41.6142 21.5481 41.4871 21.2523 41.3517L21.1565 41.31C20.8742 41.179 20.5936 41.0442 20.3148 40.9059L20.2294 40.86C20.1848 40.8388 20.1404 40.8173 20.0961 40.7955L19.6502 40.56L19.5086 40.485C19.4622 40.4598 19.4157 40.4347 19.369 40.41L19.119 40.2725C18.8815 40.1413 18.6481 40.0017 18.4148 39.8621L18.3252 39.81L18.1794 39.7267C17.8167 39.503 17.4583 39.2724 17.1044 39.035L17.0148 38.9725C16.1257 38.3797 15.2734 37.7334 14.4627 37.0371C14.215 36.8277 13.9706 36.6145 13.7294 36.3975L13.6961 36.3663C13.3794 36.075 13.0682 35.7777 12.7627 35.4746C12.5863 35.3003 12.4127 35.1232 12.2419 34.9434L12.1711 34.8725C11.9012 34.5905 11.6373 34.303 11.3794 34.01L11.3669 33.9975L11.3627 33.9913C11.1419 33.7413 10.9252 33.483 10.7127 33.2246L10.5419 33.0142C10.3238 32.7437 10.1106 32.4694 9.90232 32.1913C9.71898 31.9413 9.53773 31.6955 9.36065 31.4434C4.48565 24.5392 2.73357 15.0142 6.63148 7.19336L3.17523 11.7434Z" fill="#353535"/>
</g>
<defs>
<clipPath id="clip0_534:12">
<rect width="50" height="50" fill="white"/>
</clipPath>
</defs>
</svg>
