<svg width="50" height="50" viewBox="0 0 50 50" fill="none" xmlns="http://www.w3.org/2000/svg">
<g clip-path="url(#clip0_534:20)">
<path d="M1.66613 1.66667V0C1.43553 0.000107403 1.20746 0.0480687 0.996342 0.14085C0.785226 0.233632 0.595661 0.369215 0.439637 0.539024C0.283614 0.708833 0.164527 0.909172 0.0899083 1.12737C0.0152899 1.34557 -0.0132361 1.57688 0.00613472 1.80667L1.66613 1.66667ZM48.3328 1.66667L49.9928 1.80667C50.0122 1.57688 49.9836 1.34557 49.909 1.12737C49.8344 0.909172 49.7153 0.708833 49.5593 0.539024C49.4033 0.369215 49.2137 0.233632 49.0026 0.14085C48.7915 0.0480687 48.5634 0.000107403 48.3328 0V1.66667ZM44.9995 41.6667L45.5261 43.2467C45.8356 43.1434 46.1079 42.9516 46.3093 42.695C46.5108 42.4385 46.6325 42.1284 46.6595 41.8033L44.9995 41.6667ZM24.9995 48.3333L24.4728 49.9133C24.8146 50.0274 25.1843 50.0274 25.5261 49.9133L24.9995 48.3333ZM4.99947 41.6667L3.33947 41.8033C3.3664 42.1284 3.48814 42.4385 3.6896 42.695C3.89106 42.9516 4.16338 43.1434 4.4728 43.2467L4.99947 41.6667ZM34.9995 11.6667H36.6661V10H34.9995V11.6667ZM34.9995 31.6667L35.5261 33.2467L36.6661 32.8667V31.6667H34.9995ZM24.9995 35L24.4728 36.58L24.9995 36.7567L25.5261 36.58L24.9995 35ZM14.9995 31.6667H13.3328V32.8667L14.4728 33.2467L14.9995 31.6667ZM1.66613 3.33333H48.3328V0H1.66613V3.33333ZM46.6728 1.52667L43.3395 41.5267L46.6595 41.8033L49.9928 1.80333L46.6728 1.52667V1.52667ZM44.4728 40.0867L24.4728 46.7533L25.5261 49.9133L45.5261 43.2467L44.4728 40.0867ZM25.5261 46.7533L5.52613 40.0867L4.4728 43.2467L24.4728 49.9133L25.5261 46.7533ZM6.65947 41.53L3.32613 1.53L0.00613472 1.80667L3.33947 41.8067L6.65947 41.53ZM34.9995 10H13.3328V13.3333H34.9995V10ZM19.9995 23.3333H34.9995V20H19.9995V23.3333ZM33.3328 21.6667V31.6667H36.6661V21.6667H33.3328ZM34.4728 30.0867L24.4728 33.42L25.5261 36.58L35.5261 33.2467L34.4728 30.0867ZM25.5261 33.42L15.5261 30.0867L14.4728 33.2467L24.4728 36.58L25.5261 33.42ZM16.6661 31.6667V26.6667H13.3328V31.6667H16.6661ZM33.3328 11.6667V21.6667H36.6661V11.6667H33.3328Z" fill="#353535"/>
</g>
<defs>
<clipPath id="clip0_534:20">
<rect width="50" height="50" fill="white"/>
</clipPath>
</defs>
</svg>
