<svg width="50" height="50" viewBox="0 0 50 50" fill="none" xmlns="http://www.w3.org/2000/svg">
<path d="M28.0684 49.8939C27.4168 49.7798 26.7418 49.4704 26.359 49.1282C26.0991 48.8556 25.9508 48.4954 25.9434 48.1189C25.9434 47.736 26.1387 47.1985 26.448 46.6626C26.6355 46.361 26.7824 46.036 26.8871 45.6939C26.9527 45.4579 27.0902 45.0751 27.1965 44.8314L27.384 44.3845L27.4324 41.3985C27.4574 39.747 27.5059 38.2173 27.5465 37.9798C27.6527 37.2954 27.8309 36.6282 28.0668 35.9782L28.2465 35.547L27.9855 35.3923C27.7496 35.2454 27.5543 35.0423 26.7809 34.122C25.8293 32.9985 24.5762 32.3798 22.8012 32.1689C22.223 32.1126 21.6371 32.0704 21.0512 32.047C18.4465 31.9251 16.9574 31.3798 15.6152 30.061C14.6137 29.0767 14.0934 27.9282 13.8824 26.236C13.598 23.9485 13.2809 22.7767 12.6949 21.8251C12.5505 21.5901 12.3841 21.3693 12.198 21.1657L11.9621 20.9298L11.4418 21.2642C11.1574 21.4517 10.7574 21.6876 10.5621 21.7939C9.91054 22.1517 9.29179 22.5501 8.69804 22.9814C7.24179 24.0392 5.65429 25.3657 4.78398 26.236C4.39335 26.6267 4.19023 26.797 4.0996 26.7814C3.50585 26.6923 3.96054 24.1204 4.92929 22.1829C6.16679 19.6845 8.2496 17.3813 10.659 15.8267C12.6371 14.5485 15.8355 12.7907 17.3152 12.172C19.9434 11.0735 23.3449 9.88447 25.673 9.2501C26.1621 9.11104 26.4621 8.98916 26.6652 8.85166C27.1215 8.53447 27.5684 8.37979 28.0809 8.37197C28.5121 8.36416 28.5527 8.35635 28.9684 8.07822C29.4574 7.76104 29.6027 7.74385 30.0918 7.91572L30.409 8.02979L30.7996 7.76104L31.1902 7.5001L31.7512 7.50791C32.1824 7.51572 32.3777 7.5001 32.5652 7.41885C32.8012 7.3126 32.809 7.29697 32.8746 6.90635C33.0215 6.05947 33.0371 5.63604 32.948 5.12354C32.834 4.44854 32.8184 1.82822 32.9324 1.31416C33.0543 0.761035 33.1355 0.646973 33.5512 0.443848C34.1699 0.142285 34.634 0.0532227 35.6996 0.0532227C37.0012 0.0532227 37.6605 0.23291 38.1496 0.704785C38.5887 1.12822 38.6621 2.12041 38.434 4.44854C38.2949 5.79072 38.2793 6.16572 38.3199 7.04385C38.3355 7.60479 38.3762 8.13447 38.3934 8.20791C38.4262 8.34697 38.459 8.35479 38.9309 8.3626C39.3949 8.37041 39.4762 8.39541 39.9152 8.62354C40.3387 8.84385 40.6559 9.1126 40.7215 9.30791C40.7293 9.34854 40.8027 9.34854 40.9324 9.30791C41.184 9.23447 41.4043 9.31572 41.584 9.53604C41.6902 9.6751 41.7543 9.69854 41.9996 9.69854C42.334 9.69854 42.4559 9.77979 42.7324 10.1876C42.8618 10.3706 43.0391 10.5144 43.2449 10.6032C43.7012 10.8313 44.3199 11.4657 44.5559 11.9704C44.9215 12.7188 44.9949 13.5892 44.7668 14.3704C44.6855 14.6642 44.6855 14.672 44.8559 14.9563C45.2137 15.5673 45.3449 16.3157 45.198 16.9501L45.1168 17.3251L45.3605 17.5689C46.573 18.7814 46.3934 20.7595 44.9137 22.5251C44.7483 22.7268 44.6087 22.9483 44.498 23.1845C44.2137 23.9407 43.8871 24.4704 43.4652 24.9095L43.034 25.3485H42.5949C42.1559 25.3485 41.5371 25.2017 41.1621 25.0064C41.0074 24.9251 40.9996 24.9251 41.0324 25.022C41.1309 25.3798 41.3746 26.836 41.4559 27.6423C41.5855 28.8798 41.5449 30.6782 41.3746 31.4517C41.2501 32.0245 41.0416 32.5758 40.7559 33.0876C40.5934 33.3485 40.5855 33.4048 40.6168 33.722C40.6652 34.1689 40.5605 34.9189 40.3809 35.4142C40.1605 35.9923 40.0793 36.261 40.0309 36.5532C39.9902 36.8048 39.9902 36.8048 40.1699 36.8048C40.4059 36.8048 40.5355 36.9439 40.5355 37.2204C40.5355 37.3423 40.4293 38.0017 40.2996 38.6767C39.9418 40.5735 39.9168 40.7845 39.9168 42.6235C39.909 44.5204 39.909 44.5032 40.3402 44.7876L41.309 45.4142C42.1424 45.9673 43.0349 46.4259 43.9699 46.7814C45.3293 47.3189 45.5168 47.4564 45.5168 47.9126C45.5168 48.1157 45.4762 48.1892 45.3059 48.3517C44.7855 48.8564 43.759 48.9704 41.6918 48.7501C40.6176 48.6495 39.5394 48.5978 38.4605 48.5954C35.6121 48.5548 35.1965 48.4564 34.823 47.7485C34.6121 47.3423 34.6527 46.8126 34.9449 45.9423C35.0746 45.5595 35.1887 45.1689 35.2871 44.7704C35.4824 43.8267 35.3527 42.7032 34.8965 41.4345L34.5059 40.3517C34.123 39.2532 33.9121 37.2423 34.1402 36.7876C34.1809 36.6985 34.2543 36.6814 34.4496 36.6892L34.6934 36.7142L34.8965 36.2907C35.0512 35.9564 35.2215 35.7376 35.6855 35.2735L36.2793 34.6798L36.2465 34.297C36.2215 33.9314 35.7418 32.1564 35.6762 32.1642C35.6512 32.1642 35.5215 32.3439 35.3746 32.5704C35.0168 33.1079 34.2277 33.9376 33.7793 34.2392C33.584 34.3689 33.4215 34.5235 33.4215 34.5735C33.4137 34.7939 33.2262 35.2251 32.998 35.5251C32.7777 35.8189 32.7621 35.8673 32.7949 36.1267C32.8512 36.5095 32.7293 37.7376 32.584 38.3814C32.4523 38.8594 32.2722 39.3227 32.0465 39.7642C31.4855 40.9282 31.0621 41.9689 30.9559 42.4501C30.8791 42.9134 30.8301 43.3809 30.809 43.8501C30.784 44.4032 30.7277 44.9407 30.6871 45.0548C30.6309 45.2095 30.6309 45.3314 30.6793 45.5673C30.7199 45.7376 30.7449 46.1204 30.7355 46.422C30.7277 46.8376 30.7605 47.1064 30.8824 47.5939C31.0934 48.4235 31.134 48.9454 31.0371 49.2548C30.9715 49.4501 30.9074 49.5235 30.6871 49.6298C30.198 49.8814 28.8152 50.0204 28.0668 49.8907L28.0684 49.8939ZM30.0449 49.2267C30.3293 49.1454 30.5746 48.9017 30.5746 48.6814C30.5746 48.5829 30.4934 48.2985 30.3949 48.047C30.1996 47.5673 29.8652 46.297 29.8652 46.086C29.8652 45.9798 29.873 45.972 30.0355 46.061L30.2152 46.1595V45.9314C30.1892 45.7211 30.1426 45.5138 30.0762 45.3126C29.9215 44.8485 29.9059 44.8407 28.9199 44.7829L28.2527 44.7501L28.009 44.986C27.8749 45.124 27.7575 45.2771 27.659 45.4423C27.5527 45.6532 27.5121 45.972 27.5777 46.0439C27.5934 46.0689 27.7574 46.0439 27.9355 46.0032C28.0413 45.9718 28.1504 45.9529 28.2605 45.947C28.2605 45.9548 28.0809 46.1017 27.8543 46.2564C26.8777 46.9892 26.5355 47.436 26.5355 48.0064C26.5355 48.6001 27.0965 49.0642 27.9762 49.2032C28.5777 49.2923 29.7496 49.3173 30.0434 49.2282L30.0449 49.2267ZM43.2855 48.2579C43.5293 47.9642 43.4965 47.6642 43.1871 47.322C43.0074 47.1423 42.8043 46.9876 42.5762 46.8657C42.348 46.7439 42.1199 46.6048 41.8918 46.4595C41.4792 46.192 41.0554 45.9423 40.6215 45.711C40.2465 45.5079 39.8809 45.2954 39.523 45.0689L39.3762 44.9548V42.7173C39.3762 40.5126 39.3684 40.4798 39.2543 40.5126C38.684 40.6673 37.7402 40.7407 36.5449 40.7157L35.2512 40.7001L35.4387 41.1564C35.7887 42.0189 35.9684 43.1751 35.9684 44.5017C35.9684 44.9985 35.9355 45.1767 35.8137 45.5267C35.748 45.697 35.6918 45.8689 35.634 46.0392C35.609 46.1126 35.6996 46.1689 36.0324 46.2673C36.2762 46.3407 36.634 46.4142 36.8387 46.4376L37.2137 46.4782L37.173 46.8532C37.1324 47.2767 37.1809 47.7235 37.2871 47.8626C37.3527 47.9439 37.5965 47.9767 38.7277 48.0251C39.5824 48.0657 40.5105 48.1548 41.2418 48.261C41.8762 48.3595 42.5605 48.4407 42.7637 48.4407C43.1059 48.4485 43.1387 48.4329 43.284 48.261L43.2855 48.2579ZM30.2574 44.4501C30.2902 44.4251 30.3387 43.986 30.3559 43.4657C30.4215 42.0095 30.4777 41.797 31.2105 40.1532C31.8121 38.811 32.1309 37.5579 32.1059 36.6704L32.0902 36.1407L31.8621 36.361C31.3902 36.8329 31.7152 36.0923 32.2777 35.4329C32.7012 34.9282 32.848 34.6517 32.9121 34.2048C32.9449 34.0251 33.0105 33.936 33.2871 33.7251C34.3219 32.9434 35.1192 31.8897 35.5902 30.6814C35.7043 30.3876 35.9965 29.3876 36.2418 28.4595C36.698 26.7423 36.9418 26.0017 37.1621 25.6845C37.2434 25.5626 37.2762 25.5376 37.2605 25.6189C37.1425 26.0553 37.0502 26.4982 36.984 26.9454C36.9184 27.3439 36.7965 28.1251 36.7152 28.6704C36.5605 29.786 36.398 30.5017 36.1777 31.0548L36.0309 31.4298L36.4215 32.4392C36.8277 33.472 37.0152 34.222 37.048 34.9454L37.073 35.3517L36.7559 35.4173C36.3372 35.4914 35.9636 35.7249 35.7137 36.0689C35.4371 36.4673 35.2824 36.7939 35.3559 36.8657C35.3887 36.8985 35.7871 36.972 36.2434 37.0282C36.9512 37.1095 37.2199 37.1095 38.1559 37.0532C38.5621 37.0376 38.9621 36.997 39.3605 36.9392C39.4496 36.9064 39.5402 36.7282 39.6855 36.2642C40.0199 35.1985 40.084 34.8235 40.0434 34.0751L40.0105 33.4157L40.1809 33.1954C40.5793 32.6907 40.8887 31.7798 41.0184 30.7126C41.173 29.411 40.8887 26.6845 40.359 24.3407C40.1074 23.2251 40.0012 22.5579 40.0012 22.0704V21.6392L39.6027 21.6798C38.1699 21.8345 36.4371 21.7939 35.3793 21.5735C34.8012 21.4595 33.3449 21.0282 33.0277 20.8892L32.7762 20.7751L32.7434 21.0595C32.7184 21.2142 32.6949 21.3688 32.6621 21.5313C32.6137 21.7017 32.6293 21.7423 32.9309 22.036C33.3059 22.4188 33.4199 22.6142 33.4199 22.8735C33.4199 23.036 33.3309 23.1673 32.8746 23.6392C32.5475 23.9882 32.1845 24.3019 31.7918 24.5751L31.2621 24.9329L31.034 25.722C30.2199 28.611 30.0652 31.2392 30.6027 33.1189L30.7324 33.5907L30.4715 33.9157C29.4949 35.1439 28.9168 36.0798 28.8277 36.6017C28.7757 36.8586 28.7157 37.114 28.648 37.3673C28.4371 38.1735 28.273 39.3532 28.2012 40.6314C28.1511 41.7013 28.0808 42.7703 27.9902 43.8376L27.9496 44.1548L28.3559 44.2767C28.584 44.3501 28.9262 44.4314 29.1215 44.4642C29.4871 44.5204 30.1637 44.5048 30.2684 44.4485L30.2574 44.4501ZM38.159 39.9735C38.7934 39.9329 39.3715 39.8345 39.4855 39.7376C39.534 39.7048 39.5918 39.5345 39.6074 39.3626L39.648 39.0532L39.1434 39.1673C38.7449 39.2485 38.3465 39.297 37.9465 39.3298C36.9855 39.3704 36.0184 39.3454 35.0652 39.2485C34.748 39.2001 34.748 39.2001 34.8449 39.6142C34.9262 39.9235 34.9434 39.9392 35.773 39.997C36.3262 40.0454 37.0996 40.0376 38.1574 39.972L38.159 39.9735ZM37.6293 38.5579C38.459 38.4845 39.4934 38.3064 39.6965 38.2001C39.7621 38.1673 39.8184 38.0454 39.8434 37.9064L39.9168 37.4751L39.9574 37.272L39.7543 37.3126C38.8512 37.5001 38.1668 37.5564 36.7996 37.5564C35.4652 37.5564 35.3105 37.5485 34.9605 37.4267C34.826 37.37 34.6828 37.3367 34.5371 37.3282C34.4809 37.361 34.4715 37.8251 34.5215 38.1501C34.5543 38.3454 34.5871 38.3782 34.7824 38.4345C35.4012 38.6048 36.4434 38.6454 37.6309 38.5485L37.6293 38.5579ZM22.5262 31.2173C24.609 30.6157 27.3355 28.8485 29.5652 26.636C30.2902 25.911 30.3793 25.8142 30.4762 25.4892L30.6059 25.0735C30.6215 25.0407 30.4918 24.9845 30.3215 24.9439C29.8746 24.8376 29.5324 24.5782 29.5324 24.3423C29.5324 24.2032 29.4512 24.0657 29.2152 23.8126C28.8324 23.3814 28.7355 23.1939 28.6949 22.7798L28.6621 22.4454L28.2059 22.1204C27.9449 21.9329 27.034 21.4282 26.0652 20.9407C25.3276 20.5809 24.6056 20.1899 23.9012 19.7689C23.0871 19.2235 22.5418 18.572 22.2324 17.8001C22.1762 17.6454 22.1027 17.5157 22.0777 17.5157C22.0121 17.5157 20.1809 19.2814 19.3996 20.111C17.4715 22.1454 16.1449 23.911 15.3059 25.547C15.0949 25.9532 14.8668 26.4345 14.8012 26.6126L14.6793 26.9376L14.8262 27.4829C14.9152 27.7767 15.1027 28.2564 15.2496 28.5407C15.7621 29.5501 16.373 30.1595 17.3824 30.6564C18.4652 31.1939 19.4246 31.3814 21.0277 31.3564C21.8902 31.3485 22.1434 31.3235 22.5246 31.2095L22.5262 31.2173ZM6.0871 24.0798C7.45429 22.8673 9.34179 21.5407 11.6543 20.1657C13.1684 19.2626 19.0199 16.3329 21.7137 15.136C22.2027 14.9157 22.6418 14.7126 22.6902 14.6892C22.7387 14.6563 22.8777 14.3063 23.0074 13.9157C23.5777 12.1095 23.8621 11.7517 24.8949 11.5157C25.0246 11.4829 25.0574 11.4423 25.0574 11.3126C25.0574 11.0767 25.2199 10.5313 25.359 10.2876C25.4652 10.1001 25.4652 10.0923 25.3746 10.1173C25.3184 10.1329 24.9762 10.2313 24.6184 10.3376C19.6543 11.7704 15.3168 13.6735 11.573 16.0501C7.57773 18.5892 5.2746 21.6329 4.60742 25.2782L4.55898 25.547L5.04804 25.0673C5.30898 24.7985 5.78085 24.3595 6.09023 24.0907L6.0871 24.0798ZM42.9121 24.772C43.3105 24.5689 43.9293 23.6329 44.1574 22.8923C44.223 22.6314 44.3527 22.3876 44.5402 22.1845C45.1418 21.5173 45.6387 20.3048 45.6465 19.4751C45.6465 18.1813 44.9137 17.6845 43.848 18.2376C43.709 18.3032 43.5965 18.3517 43.5793 18.336C43.523 18.2798 43.823 17.986 44.1902 17.7579C44.6699 17.4407 44.7605 17.2532 44.7605 16.5782C44.7676 16.0326 44.6055 15.4982 44.2965 15.0485C44.1496 14.8282 44.0934 14.6829 44.1168 14.5923L44.2637 14.047C44.4668 13.322 44.3934 12.4923 44.0762 11.9642C43.6043 11.1673 43.0262 10.7767 42.2199 10.711L41.748 10.6782L42.0246 10.9876C42.8465 11.8751 43.2449 12.9892 43.0824 13.9423C43.0012 14.4313 42.9277 14.5282 42.4559 14.7157L42.1793 14.8298L42.2121 15.2048C42.2684 15.8157 42.1637 16.2626 41.773 17.0845C41.5777 17.5001 41.4309 17.8735 41.448 17.9142C41.4965 18.0532 42.034 18.3126 42.4574 18.4189L42.873 18.5173L42.6121 18.6063C42.2699 18.7126 42.1965 18.8673 42.1965 19.4282C42.1965 19.9407 42.2699 20.1532 42.6434 20.7142C42.8137 20.9579 42.9277 21.211 42.9449 21.3564C42.9777 21.5845 42.9699 21.6001 42.7824 21.6657C42.5699 21.7254 42.3513 21.761 42.1309 21.772C41.3652 21.8204 41.309 21.8454 40.9668 22.1704C40.6574 22.4642 40.6496 22.4798 40.6496 22.8048C40.6496 23.2517 40.8199 24.1564 40.9262 24.2782C41.0652 24.4251 41.8371 24.8079 42.1387 24.8642C42.3987 24.9295 42.6737 24.8978 42.9121 24.7751V24.772ZM31.6402 24.1626C32.1371 23.772 32.5277 23.3814 32.7465 23.047C32.8855 22.8439 32.8934 22.8032 32.8277 22.6314C32.7137 22.3704 31.9652 21.6954 31.5496 21.4923C31.2727 21.3682 30.9797 21.2835 30.6793 21.2407L30.1668 21.1751L29.8496 20.7767C29.1902 19.9626 28.8246 19.3282 28.3027 18.0985C27.8465 17.0563 27.448 16.447 26.8137 15.8438C26.5527 15.6001 26.3668 15.397 26.3824 15.397C26.4152 15.397 26.7246 15.5517 27.0824 15.7392C27.6762 16.0563 27.7496 16.0813 28.0184 16.0407C28.9871 15.9267 29.8418 14.8126 30.1512 13.2501C30.2402 12.811 30.4199 12.3626 30.6074 12.0938C30.6152 12.086 30.9902 12.3298 31.4293 12.647C32.5449 13.436 32.7887 13.5579 33.423 13.5829C33.8387 13.5985 34.0746 13.5673 34.823 13.3876C36.4184 12.997 38.1434 12.8423 39.1934 12.9813C39.7871 13.0626 40.6418 13.3235 41.2762 13.6235C41.9027 13.9173 42.0246 13.9329 42.2277 13.7532C42.398 13.6063 42.398 13.5829 42.398 13.0376C42.3902 12.2313 42.0965 11.361 41.6496 10.8407C41.4215 10.572 40.7793 10.1329 40.1434 9.79854C39.9173 9.67863 39.6923 9.55675 39.4684 9.43291C39.1668 9.25322 38.8262 9.27822 37.898 9.52197C36.823 9.79854 36.5387 9.79854 35.3105 9.48135C34.2684 9.22041 34.2043 9.2126 33.1777 9.3751C32.6324 9.45635 31.2652 9.40791 30.809 9.28604C30.5809 9.22041 30.3527 9.15635 30.134 9.0751C29.7355 8.92041 29.0434 8.89541 28.4168 9.00947C27.1715 9.22979 26.2277 9.90479 25.8855 10.8235C25.7059 11.2876 25.7309 11.5079 25.9668 11.6532C26.3418 11.8892 26.8371 12.5329 26.8371 12.7845C26.8371 12.8001 26.7152 12.6954 26.5762 12.5485C26.2262 12.1829 25.909 12.0188 25.534 12.0188C25.2913 12.0256 25.0554 12.1 24.8528 12.2336C24.6502 12.3672 24.4889 12.5547 24.3871 12.7751C24.2776 13.0626 24.1853 13.3563 24.1105 13.6548C23.8824 14.4845 23.6793 14.9251 23.248 15.511C22.8652 16.0407 22.809 16.2767 22.9465 16.8704C23.2887 18.3673 23.8824 18.9704 26.3637 20.3782C27.6652 21.1188 28.3324 21.5345 28.8215 21.9001C29.1965 22.1767 29.2043 22.1939 29.1715 22.4048C29.098 22.8939 29.4074 23.422 30.0184 23.8532C30.173 23.9595 30.2699 24.0735 30.2699 24.1548C30.2699 24.3017 30.6855 24.5048 30.9855 24.5048C31.1559 24.5048 31.2871 24.4314 31.6371 24.1626H31.6402ZM41.6746 21.4189C42.6184 21.4517 42.6668 21.3782 42.1637 20.7923C41.634 20.1814 41.4887 19.686 41.684 19.1407L41.7652 18.9298L41.4309 18.7673C41.3168 18.711 41.2027 18.6532 41.0887 18.6126C41.0324 18.8329 40.9746 19.0439 40.9262 19.2642C40.8043 19.761 40.6574 21.047 40.6496 21.5923C40.6496 21.6407 40.7309 21.6251 40.8699 21.536C41.0652 21.422 41.1637 21.4064 41.6762 21.422L41.6746 21.4189ZM38.509 21.3704C39.0793 21.3376 39.6652 21.297 39.8199 21.272L40.1043 21.2314L40.1371 20.2954C40.1855 18.961 40.3809 18.172 40.959 16.9095C41.3652 16.0142 41.5449 15.2329 41.4559 14.647C41.423 14.3954 41.4074 14.3782 41.0652 14.2313C40.4387 13.9825 39.7861 13.8049 39.1199 13.7017C38.4777 13.6126 36.5887 13.661 35.8809 13.8001C35.5871 13.8485 35.0512 13.9626 34.6934 14.0517C33.8059 14.2548 33.334 14.2313 32.659 13.9376C31.9918 13.6438 31.5684 13.3767 31.1699 13.0017C30.8527 12.7079 30.8199 12.6923 30.7387 12.7907C30.673 12.8642 30.6402 13.0845 30.6168 13.5563C30.5918 14.2813 30.4777 14.6626 30.1605 15.1751C30.0901 15.2805 30.0299 15.3925 29.9809 15.5095C29.9809 15.5345 30.2246 15.8188 30.5262 16.1282C31.5684 17.211 32.0809 17.4876 32.9027 17.4298C33.1715 17.4048 33.359 17.4142 33.359 17.4454C33.359 17.511 32.8293 17.9251 32.6105 18.0392C32.5043 18.0954 32.4809 18.1532 32.4965 18.2751L32.6262 19.1298C32.6996 19.6189 32.7559 19.8454 32.8293 19.911C33.0246 20.0735 34.034 20.5954 34.6684 20.8548C35.498 21.1892 35.9543 21.311 36.5887 21.3673C37.3699 21.4329 37.3855 21.4329 38.509 21.3673V21.3704ZM31.7793 20.4751C31.7949 20.4501 31.7387 19.9782 31.6324 19.4329C31.5027 18.6923 31.4293 18.4235 31.348 18.3501C31.2918 18.3017 30.9902 18.0892 30.6887 17.8704C30.2924 17.5855 29.917 17.2727 29.5652 16.9345L29.0043 16.3813L28.7027 16.536L28.3855 16.7064C28.4122 16.8335 28.4559 16.9564 28.5152 17.072C28.6043 17.2673 28.784 17.747 28.9137 18.1376C29.2559 19.1548 29.5246 19.6438 30.1996 20.5298L30.4512 20.8642L30.9309 20.9376C31.1996 20.9782 31.4684 21.036 31.5418 21.0595C31.6559 21.1079 31.6715 21.0845 31.7043 20.8235C31.7199 20.7095 31.7449 20.5876 31.7777 20.4735L31.7793 20.4751ZM42.0902 10.3517C42.5059 10.311 42.5793 10.2532 42.3996 10.0673C42.2855 9.95322 42.0246 9.94541 41.8137 10.0423C41.6746 10.1079 41.6434 10.0907 41.423 9.85479C41.1949 9.60322 41.1793 9.59385 40.8934 9.62666C40.6324 9.65947 40.5918 9.65166 40.559 9.54541C40.4574 9.37088 40.3311 9.21195 40.184 9.07354C39.9992 8.86353 39.7681 8.69932 39.509 8.59385C39.0043 8.39854 38.7199 8.42354 38.2387 8.69229C36.8465 9.44854 36.9043 9.44072 35.5605 9.09854C34.3074 8.78135 33.3715 8.45635 33.0699 8.25166C32.8184 8.08135 32.2809 7.89385 31.8324 7.83604C31.498 7.7876 31.2871 7.86104 30.9699 8.12041L30.7996 8.25947L30.9543 8.52822C31.1652 8.90322 31.1418 8.92666 30.8246 8.6501C30.4824 8.36572 30.0762 8.17041 29.8152 8.16104C29.6277 8.16104 29.0746 8.40479 29.009 8.51104C28.984 8.54385 29.1559 8.58447 29.384 8.6001C29.6199 8.6251 29.9449 8.70635 30.1652 8.79541C30.7355 9.03916 31.0277 9.12041 31.548 9.17041C32.1184 9.22666 33.1512 9.1626 33.273 9.06416C33.3387 9.00791 33.5168 8.99854 33.8918 9.03135C34.3887 9.06416 34.5918 9.1126 35.7715 9.42979C36.4559 9.61729 36.9355 9.6001 37.7496 9.38135C38.1246 9.2751 38.5965 9.17041 38.7918 9.14541C39.1262 9.1126 39.1902 9.12979 39.7121 9.36572C40.5418 9.74072 40.9824 9.97666 41.2262 10.1954C41.4699 10.4063 41.5027 10.4063 42.0887 10.3579L42.0902 10.3517ZM37.4512 8.92822L37.948 8.66729L37.9324 8.1626C37.9246 7.8126 37.9074 7.47041 37.8918 7.12979L37.8512 6.60947L37.3543 6.99229C37.0605 7.22041 36.7762 7.39072 36.6543 7.41572C36.2965 7.48135 34.5309 7.41572 34.3668 7.32666C34.1482 7.1652 33.9438 6.98538 33.7559 6.78916L33.2996 6.3251L33.2918 6.60166C33.2918 6.74854 33.2762 7.0001 33.2434 7.15479C33.2027 7.44854 33.2027 7.45635 33.5199 7.85479C33.6902 8.0751 33.8293 8.27041 33.8293 8.29385C33.8293 8.44854 36.1809 9.18135 36.7105 9.18916C36.8809 9.18916 37.0934 9.11572 37.4512 8.92822V8.92822ZM36.5074 7.07979C37.0934 6.96572 37.3777 6.54229 37.598 5.46885C37.8262 4.3126 37.9402 2.49854 37.834 1.7251C37.7355 1.0251 36.9543 0.715723 35.4652 0.76416C34.5371 0.796973 34.1543 0.886035 33.8371 1.15479C33.6418 1.31729 33.6418 1.33447 33.5527 2.10635C33.3902 3.5876 33.634 5.69541 34.0574 6.48447C34.2605 6.86729 34.4402 7.00479 34.8137 7.07041C35.2371 7.14385 36.1402 7.14385 36.5059 7.07822L36.5074 7.07979Z" fill="#353535"/>
</svg>
