<svg width="50" height="50" viewBox="0 0 50 50" fill="none" xmlns="http://www.w3.org/2000/svg">
<path d="M44.624 26.9627L39.3066 8.85721V8.85233C38.9355 7.73416 38.0517 7.0701 36.9482 7.0701C35.8056 7.0701 34.873 7.72928 34.5214 8.78885L31.0351 19.1892H18.9843L15.498 8.78885C15.1464 7.72928 14.2138 7.0701 13.0713 7.0701C11.9433 7.0701 10.9961 7.79275 10.708 8.85721L5.39547 26.9627C5.18063 27.6805 5.45406 28.4959 6.05465 28.95L24.0478 42.4461C24.1748 42.6219 24.3505 42.7537 24.5556 42.8269L24.9755 43.1394L25.3906 42.8269C25.6298 42.7439 25.83 42.5974 25.9716 42.3924L43.9599 28.9451C44.5654 28.4959 44.8388 27.6805 44.624 26.9627ZM36.7041 9.44315C36.7529 9.35525 36.8457 9.35037 36.875 9.35037C36.9287 9.35037 36.997 9.36502 37.041 9.49686L39.9414 19.2527H33.4228L36.7041 9.44315ZM12.9052 9.49197C12.9492 9.36502 13.0175 9.35037 13.0713 9.35037C13.2031 9.35037 13.2129 9.35526 13.2373 9.43338L16.5234 19.2576H10.083L12.9052 9.49197V9.49197ZM7.75387 27.2801L9.13082 22.5291L19.0136 35.7224L7.75387 27.2801V27.2801ZM11.3623 21.5965H17.3242L21.7578 35.4783L11.3623 21.5965V21.5965ZM25.0439 37.8904L19.8095 21.5965H30.2734L25.0439 37.8904ZM32.7539 21.5965H38.5888L28.3203 35.3074L32.7539 21.5965ZM30.7666 35.9471L40.8886 22.4363L42.3291 27.2801L30.7666 35.9471Z" fill="#353535"/>
</svg>
