<svg width="50" height="26" viewBox="0 0 50 26" fill="none" xmlns="http://www.w3.org/2000/svg">
<g clip-path="url(#clip0_734:91)">
<path d="M12.3407 0.820294C12.5216 0.512677 12.7567 0.217169 13.0946 0.0722475C13.2333 0.048224 13.372 0.0603334 13.5106 0.0603334H20.3382C20.1392 0.229083 19.9462 0.404083 19.8136 0.633185C19.4638 1.20623 19.2284 1.84549 19.0114 2.48475C18.3962 4.41502 17.9679 6.3992 17.5517 8.38358C17.3641 9.28254 17.1851 10.1833 17.0149 11.0857C16.4962 14.0291 15.9595 16.9662 15.2899 19.8793C14.9704 21.2244 14.6446 22.5693 14.1501 23.866C13.9208 24.4029 13.6978 24.9758 13.2575 25.3738C13.155 25.4644 13.0524 25.5789 12.9075 25.5609H6.87627C6.46611 25.5488 6.06201 25.5849 5.65186 25.5428C5.92334 25.3318 6.16455 25.0783 6.32139 24.7767C6.77373 23.9142 7.05713 22.9795 7.32861 22.0506C7.75088 20.5549 8.08838 19.041 8.4083 17.5271C8.60732 16.532 8.84248 15.5428 8.98721 14.5416C9.1501 13.4258 9.39736 12.3221 9.59639 11.2123C9.91006 9.57772 10.2417 7.94334 10.6097 6.32088C10.9052 5.05428 11.2067 3.79354 11.6108 2.55721C11.8101 1.96014 12.0269 1.36912 12.3407 0.820294V0.820294Z" fill="#353535" stroke="#353535" stroke-width="0.094"/>
<path d="M20.3386 0.0602776C20.5134 0.0602776 20.6882 0.054223 20.8632 0.0602776C21.2491 0.265356 21.5749 0.590942 21.7558 0.995043C21.997 1.45344 22.1962 1.93606 22.3769 2.43059C22.9802 4.29426 23.3903 6.21223 23.8005 8.12415C24.1501 9.83704 24.4821 11.556 24.7956 13.281C24.8198 13.3714 24.7897 13.4982 24.9103 13.5222C24.4759 15.79 24.0478 18.0638 23.505 20.3136C23.2093 21.5259 22.8956 22.7322 22.4495 23.9023C22.2081 24.4872 21.9608 25.1265 21.4481 25.5429C21.1226 25.6152 20.8872 25.3679 20.6884 25.1447C20.3446 24.7044 20.1333 24.1857 19.9282 23.6669C19.2466 21.8095 18.8306 19.8734 18.4085 17.9433C18.0888 16.4413 17.8052 14.9277 17.5097 13.4198C17.3769 12.6536 17.1962 11.8997 17.0937 11.1339C17.0755 11.1218 17.0331 11.0976 17.0151 11.0857C17.1853 10.1832 17.3642 9.28249 17.5519 8.38352C17.9681 6.39915 18.3964 4.41477 19.0116 2.48489C19.2286 1.84543 19.464 1.20618 19.8138 0.633325C19.9466 0.404028 20.1394 0.229028 20.3384 0.0602776H20.3386Z" fill="#8D8D8D" stroke="#8D8D8D" stroke-width="0.094"/>
<path d="M27.8836 1.1038C28.101 0.687787 28.3662 0.223334 28.8367 0.0664978C31.2313 0.0543884 33.6258 0.0604431 36.0201 0.0604431C35.7969 0.28349 35.5617 0.506732 35.4107 0.790131C34.9465 1.62255 34.675 2.5454 34.3977 3.45615C33.6859 5.96513 33.1854 8.52841 32.7088 11.0917C32.2686 13.619 31.7981 16.146 31.2613 18.6612C30.984 19.9276 30.6943 21.1882 30.3266 22.4366C30.0912 23.2087 29.8441 23.9868 29.458 24.7046C29.2709 25.0302 29.0537 25.3862 28.698 25.555C26.4121 25.5731 24.1201 25.555 21.8344 25.5608C21.7076 25.5608 21.575 25.5608 21.4482 25.5429C21.9609 25.1268 22.2082 24.4874 22.4496 23.9022C22.8959 22.7323 23.2094 21.5261 23.5051 20.3138C24.0479 18.064 24.476 15.7903 24.9104 13.5224C25.435 10.5972 25.984 7.67197 26.6836 4.7829C27.0092 3.53447 27.3229 2.26786 27.8838 1.1038H27.8836Z" fill="#353535" stroke="#353535" stroke-width="0.094"/>
<path d="M36.0196 0.0602776C36.2125 0.0602776 36.4116 0.054223 36.6045 0.0602776C36.9182 0.223168 37.1415 0.500512 37.3405 0.78391C37.6661 1.30266 37.8711 1.88782 38.0823 2.46067C38.5829 3.99875 38.9569 5.57903 39.3006 7.15911C39.759 9.28821 40.1571 11.4294 40.5491 13.5704C40.6456 14.0831 40.742 14.6017 40.8024 15.1206L40.8928 15.2111C40.6758 15.5126 40.5913 15.8745 40.4707 16.2183C40.0907 17.4427 39.8434 18.7093 39.6323 19.9699C39.4696 20.9589 39.2463 21.9421 38.9387 22.895C38.7096 23.6007 38.4321 24.3003 37.9739 24.8913C37.7565 25.1749 37.461 25.3919 37.1354 25.5366C36.6348 25.5909 36.3391 25.1085 36.0979 24.7527C35.5973 23.8781 35.326 22.9011 35.0364 21.948C34.0834 18.4197 33.4622 14.807 32.7928 11.2183C32.7905 11.1918 32.7815 11.1662 32.7668 11.1441C32.752 11.1219 32.7319 11.1039 32.7083 11.0915C33.1848 8.52825 33.6854 5.96497 34.3971 3.45598C34.6745 2.54524 34.9459 1.62239 35.4104 0.789965C35.5612 0.506567 35.7963 0.283325 36.0196 0.0602776V0.0602776Z" fill="#8D8D8D" stroke="#8D8D8D" stroke-width="0.094"/>
<path d="M0.0065918 13.7816C0.163623 13.7695 0.320459 13.7455 0.483154 13.7455H7.05737C7.33472 13.7816 7.62436 13.7576 7.88979 13.8783C8.27847 14.0381 8.61771 14.2982 8.8728 14.6322C8.90307 14.614 8.95737 14.5658 8.98745 14.5416C8.84272 15.5427 8.60757 16.5318 8.40854 17.5271C8.08882 19.041 7.75112 20.5549 7.32886 22.0506C7.05737 22.9795 6.77397 23.9142 6.32163 24.7767C6.16479 25.0783 5.92358 25.3316 5.6521 25.5427C5.54956 25.5609 5.47124 25.4884 5.38667 25.4341C5.10327 25.2533 4.94038 24.9396 4.76557 24.6562C3.93921 22.7744 3.84878 20.6935 3.33608 18.7273C3.07671 17.7443 2.75698 16.7672 2.28667 15.8625C1.99702 15.3195 1.64136 14.801 1.1769 14.3847C0.833154 14.1074 0.434912 13.8842 0.00678711 13.7816H0.0065918Z" fill="#8D8D8D" stroke="#8D8D8D" stroke-width="0.094"/>
<path d="M41.4245 14.4091C41.8044 13.9807 42.3714 13.7094 42.9444 13.7335H47.8901C48.5776 13.7456 49.2712 13.7094 49.9589 13.7516C49.7538 13.8903 49.5066 13.9446 49.2894 14.0592C48.5355 14.403 47.8901 14.9758 47.48 15.6936C46.8226 16.8397 46.5933 18.1546 46.4003 19.4452C46.2073 20.7118 46.2134 22.0206 45.8032 23.251C45.5259 24.1135 45.1036 24.9819 44.3737 25.5489C42.1062 25.5731 39.8382 25.5549 37.5765 25.561C37.4257 25.561 37.281 25.5669 37.1362 25.5368C37.4618 25.3923 37.7573 25.1751 37.9745 24.8915C38.4329 24.3005 38.7105 23.6008 38.9396 22.8952C39.2472 21.9421 39.4704 20.9591 39.6331 19.97C39.8442 18.7094 40.0915 17.4426 40.4716 16.2184C40.5921 15.8747 40.6767 15.5128 40.8937 15.2112C41.0747 14.9458 41.1952 14.6382 41.4245 14.4091V14.4091Z" fill="#353535" stroke="#353535" stroke-width="0.094"/>
</g>
<defs>
<clipPath id="clip0_734:91">
<rect width="50" height="25.5859" fill="white"/>
</clipPath>
</defs>
</svg>
