<svg width="23" height="24" viewBox="0 0 23 24" fill="none" xmlns="http://www.w3.org/2000/svg">
<g clip-path="url(#clip0_1605_11)">
<path d="M13.625 6.22C11.472 6.22 9.34991 7.14435 7.72983 8.96165V0H4.52383V15.0886C4.52383 19.9865 8.49435 23.9571 13.3923 23.9571C18.2903 23.9571 22.2609 19.9865 22.2609 15.0886C22.2609 10.1907 18.523 6.22 13.625 6.22ZM13.3923 20.5413C10.3809 20.5413 7.93957 18.1 7.93957 15.0886C7.93957 12.0771 10.3809 9.63583 13.3923 9.63583C16.4037 9.63583 18.845 12.0771 18.845 15.0886C18.845 18.1001 16.4037 20.5413 13.3923 20.5413Z" fill="#262626"/>
<path d="M2.19304 19.571C0.981739 19.571 0 20.5529 0 21.764C0 22.9751 0.981826 23.957 2.19304 23.957C3.40426 23.957 4.38609 22.9751 4.38609 21.764C4.38609 20.5529 3.40426 19.571 2.19304 19.571Z" fill="#262626"/>
</g>
<defs>
<clipPath id="clip0_1605_11">
<rect width="22.2609" height="24" fill="white"/>
</clipPath>
</defs>
</svg>
