<svg width="50" height="50" viewBox="0 0 50 50" fill="none" xmlns="http://www.w3.org/2000/svg">
<path d="M26.5625 23.4375C26.5625 22.1943 27.0564 21.002 27.9354 20.1229C28.8145 19.2439 30.0068 18.75 31.25 18.75H35.9375C36.3519 18.75 36.7493 18.9146 37.0424 19.2076C37.3354 19.5007 37.5 19.8981 37.5 20.3125C37.5 20.7269 37.3354 21.1243 37.0424 21.4174C36.7493 21.7104 36.3519 21.875 35.9375 21.875H31.25C30.8356 21.875 30.4382 22.0396 30.1451 22.3326C29.8521 22.6257 29.6875 23.0231 29.6875 23.4375V25C29.6875 25.4144 29.8521 25.8118 30.1451 26.1049C30.4382 26.3979 30.8356 26.5625 31.25 26.5625H32.8125C34.0557 26.5625 35.248 27.0564 36.1271 27.9354C37.0061 28.8145 37.5 30.0068 37.5 31.25V32.8125C37.5 34.0557 37.0061 35.248 36.1271 36.1271C35.248 37.0061 34.0557 37.5 32.8125 37.5H28.125C27.7106 37.5 27.3132 37.3354 27.0201 37.0424C26.7271 36.7493 26.5625 36.3519 26.5625 35.9375C26.5625 35.5231 26.7271 35.1257 27.0201 34.8326C27.3132 34.5396 27.7106 34.375 28.125 34.375H32.8125C33.2269 34.375 33.6243 34.2104 33.9174 33.9174C34.2104 33.6243 34.375 33.2269 34.375 32.8125V31.25C34.375 30.8356 34.2104 30.4382 33.9174 30.1451C33.6243 29.8521 33.2269 29.6875 32.8125 29.6875H31.25C30.0068 29.6875 28.8145 29.1936 27.9354 28.3146C27.0564 27.4355 26.5625 26.2432 26.5625 25V23.4375Z" fill="#353535"/>
<path d="M25 20.3125C25 19.8981 24.8354 19.5007 24.5424 19.2076C24.2493 18.9146 23.8519 18.75 23.4375 18.75C23.0231 18.75 22.6257 18.9146 22.3326 19.2076C22.0396 19.5007 21.875 19.8981 21.875 20.3125V32.8125C21.875 33.2269 21.7104 33.6243 21.4174 33.9174C21.1243 34.2104 20.7269 34.375 20.3125 34.375H17.1875C16.7731 34.375 16.3757 34.5396 16.0826 34.8326C15.7896 35.1257 15.625 35.5231 15.625 35.9375C15.625 36.3519 15.7896 36.7493 16.0826 37.0424C16.3757 37.3354 16.7731 37.5 17.1875 37.5H20.3125C21.5557 37.5 22.748 37.0061 23.6271 36.1271C24.5061 35.248 25 34.0557 25 32.8125V20.3125Z" fill="#353535"/>
<path d="M6.25 14.0625C6.25 11.9905 7.0731 10.0034 8.53823 8.53823C10.0034 7.0731 11.9905 6.25 14.0625 6.25H35.9375C38.0095 6.25 39.9966 7.0731 41.4618 8.53823C42.9269 10.0034 43.75 11.9905 43.75 14.0625V35.9375C43.75 38.0095 42.9269 39.9966 41.4618 41.4618C39.9966 42.9269 38.0095 43.75 35.9375 43.75H14.0625C11.9905 43.75 10.0034 42.9269 8.53823 41.4618C7.0731 39.9966 6.25 38.0095 6.25 35.9375V14.0625ZM14.0625 9.375C12.8193 9.375 11.627 9.86886 10.7479 10.7479C9.86886 11.627 9.375 12.8193 9.375 14.0625V35.9375C9.375 37.1807 9.86886 38.373 10.7479 39.2521C11.627 40.1311 12.8193 40.625 14.0625 40.625H35.9375C37.1807 40.625 38.373 40.1311 39.2521 39.2521C40.1311 38.373 40.625 37.1807 40.625 35.9375V14.0625C40.625 12.8193 40.1311 11.627 39.2521 10.7479C38.373 9.86886 37.1807 9.375 35.9375 9.375H14.0625Z" fill="#353535"/>
</svg>
