<svg width="50" height="50" viewBox="0 0 50 50" fill="none" xmlns="http://www.w3.org/2000/svg">
<path d="M39.062 6.25006H10.937C9.69381 6.25006 8.50152 6.74392 7.62245 7.623C6.74337 8.50207 6.24951 9.69436 6.24951 10.9376V39.0626C6.24951 40.3058 6.74337 41.498 7.62245 42.3771C8.50152 43.2562 9.69381 43.7501 10.937 43.7501H39.062C40.3052 43.7501 41.4975 43.2562 42.3766 42.3771C43.2556 41.498 43.7495 40.3058 43.7495 39.0626V10.9376C43.7495 9.69436 43.2556 8.50207 42.3766 7.623C41.4975 6.74392 40.3052 6.25006 39.062 6.25006V6.25006ZM22.562 34.6563C22.562 35.253 22.325 35.8253 21.903 36.2473C21.481 36.6693 20.9087 36.9063 20.312 36.9063H13.3745C12.7778 36.9063 12.2055 36.6693 11.7835 36.2473C11.3616 35.8253 11.1245 35.253 11.1245 34.6563V13.3751C11.1245 12.1313 12.1308 11.1251 13.3745 11.1251H20.312C21.5537 11.1251 22.562 12.1313 22.562 13.3751V34.6563ZM38.8745 25.2813C38.8745 25.878 38.6375 26.4503 38.2155 26.8723C37.7935 27.2943 37.2212 27.5313 36.6245 27.5313H29.687C29.0903 27.5313 28.518 27.2943 28.096 26.8723C27.6741 26.4503 27.437 25.878 27.437 25.2813V13.3751C27.437 12.1313 28.4453 11.1251 29.687 11.1251H36.6245C37.8683 11.1251 38.8745 12.1313 38.8745 13.3751V25.2813V25.2813Z" fill="#353535"/>
</svg>
