<svg width="50" height="50" viewBox="0 0 50 50" fill="none" xmlns="http://www.w3.org/2000/svg">
<path d="M38.5413 19.8128C36.9789 19.2747 35.5998 18.3072 34.5621 17.0212C33.4184 15.5883 31.9622 14.436 30.3048 13.6525C28.6474 12.8689 26.8327 12.4748 24.9996 12.5003C22.5337 12.3257 20.0925 13.0862 18.1621 14.6305C16.2317 16.1748 14.9538 18.3896 14.5829 20.8337C15.3135 19.6112 16.413 18.6521 17.7233 18.0943C19.0336 17.5365 20.4871 17.4088 21.8746 17.7295C23.4344 18.2833 24.8112 19.2564 25.8538 20.542C27.0037 21.9634 28.4627 23.1038 30.1197 23.8763C31.7768 24.6489 33.5883 25.0333 35.4163 25.0003C37.8822 25.175 40.3234 24.4144 42.2537 22.8701C44.1841 21.3258 45.462 19.1111 45.8329 16.667C45.1156 17.904 44.0196 18.8776 42.7066 19.4441C41.3936 20.0105 39.9333 20.1398 38.5413 19.8128ZM11.4579 30.1878C13.0203 30.7259 14.3994 31.6935 15.4371 32.9795C16.5807 34.4123 18.037 35.5646 19.6944 36.3482C21.3518 37.1318 23.1665 37.5258 24.9996 37.5003C27.4655 37.675 29.9067 36.9144 31.8371 35.3701C33.7675 33.8258 35.0453 31.6111 35.4163 29.167C34.6857 30.3894 33.5861 31.3485 32.2759 31.9063C30.9656 32.4641 29.5121 32.5919 28.1246 32.2712C26.5648 31.7174 25.188 30.7442 24.1454 29.4587C22.9924 28.0408 21.5328 26.9029 19.8765 26.1307C18.2201 25.3584 16.4102 24.9719 14.5829 25.0003C12.117 24.8257 9.67581 25.5862 7.74544 27.1305C5.81507 28.6748 4.53718 30.8896 4.16626 33.3337C4.88357 32.0966 5.97961 31.123 7.29258 30.5566C8.60555 29.9901 10.0659 29.8608 11.4579 30.1878Z" fill="#353535"/>
</svg>
