<svg width="50" height="50" viewBox="0 0 50 50" fill="none" xmlns="http://www.w3.org/2000/svg">
<path d="M15.8186 37.4999H26.678C32.3155 37.4999 35.703 34.6624 35.703 30.0124C35.703 26.5686 33.3249 24.0249 29.753 23.6561V23.3436C32.353 22.9061 34.3842 20.4374 34.3842 17.6686C34.3842 13.6061 31.3999 11.0749 26.4405 11.0749H15.8186V37.4999ZM19.9217 22.2655V14.5561H25.4842C28.5249 14.5561 30.303 15.9843 30.303 18.4218C30.303 20.928 28.4155 22.2655 24.7905 22.2655H19.9217ZM19.9217 34.0218V25.5061H25.6155C29.478 25.5061 31.5124 26.953 31.5124 29.7186C31.5124 32.5186 29.553 34.0218 25.853 34.0218H19.9217V34.0218Z" fill="#353535"/>
<path d="M0 12.5C0 9.18479 1.31696 6.00537 3.66117 3.66117C6.00537 1.31696 9.18479 0 12.5 0L37.5 0C40.8152 0 43.9946 1.31696 46.3388 3.66117C48.683 6.00537 50 9.18479 50 12.5V37.5C50 40.8152 48.683 43.9946 46.3388 46.3388C43.9946 48.683 40.8152 50 37.5 50H12.5C9.18479 50 6.00537 48.683 3.66117 46.3388C1.31696 43.9946 0 40.8152 0 37.5V12.5ZM12.5 3.125C10.0136 3.125 7.62903 4.11272 5.87087 5.87087C4.11272 7.62903 3.125 10.0136 3.125 12.5V37.5C3.125 39.9864 4.11272 42.371 5.87087 44.1291C7.62903 45.8873 10.0136 46.875 12.5 46.875H37.5C39.9864 46.875 42.371 45.8873 44.1291 44.1291C45.8873 42.371 46.875 39.9864 46.875 37.5V12.5C46.875 10.0136 45.8873 7.62903 44.1291 5.87087C42.371 4.11272 39.9864 3.125 37.5 3.125H12.5Z" fill="#353535"/>
</svg>
