<svg width="50" height="48" viewBox="0 0 50 48" fill="none" xmlns="http://www.w3.org/2000/svg">
<path d="M8.79573 38.7514C9.76214 39.6616 10.9102 40.3832 12.1741 40.8748C13.438 41.3664 14.7926 41.6183 16.1603 41.616C17.5283 41.6182 18.8833 41.3663 20.1475 40.8747C21.4116 40.3832 22.5601 39.6616 23.527 38.7514L29.4187 33.2085L26.4728 30.438L20.5812 35.9809C19.4071 37.0801 17.818 37.6972 16.1614 37.6972C14.5048 37.6972 12.9156 37.0801 11.7416 35.9809C10.5718 34.8773 9.91491 33.3825 9.91491 31.8242C9.91491 30.2659 10.5718 28.7711 11.7416 27.6675L17.6353 22.1265L14.6895 19.3561L8.79573 24.897C6.84533 26.7358 5.75 29.227 5.75 31.8242C5.75 34.4215 6.84533 36.9127 8.79573 38.7514V38.7514ZM41.2041 22.1265C43.1535 20.2873 44.2481 17.7963 44.2481 15.1993C44.2481 12.6024 43.1535 10.1114 41.2041 8.27215C39.2489 6.43785 36.6001 5.40771 33.8384 5.40771C31.0768 5.40771 28.4279 6.43785 26.4728 8.27215L20.5812 13.8151L23.527 16.5856L29.4187 11.0426C30.5927 9.94344 32.1818 9.32633 33.8384 9.32633C35.4951 9.32633 37.0842 9.94344 38.2582 11.0426C39.428 12.1463 40.0849 13.641 40.0849 15.1993C40.0849 16.7577 39.428 18.2524 38.2582 19.3561L32.3645 24.897L35.3103 27.6675L41.2041 22.1265Z" fill="#597BAE"/>
<path d="M17.6335 33.2106L14.6855 30.4401L32.3668 13.8132L35.3126 16.5857L17.6335 33.2106Z" fill="#597BAE"/>
</svg>
