<svg width="50" height="50" viewBox="0 0 50 50" fill="none" xmlns="http://www.w3.org/2000/svg">
<path d="M50 24.352C50 21.0395 45.8521 17.8999 39.4917 15.9541C40.9604 9.47284 40.3083 4.3145 37.4333 2.66242C36.7367 2.27225 35.9483 2.07586 35.15 2.09367V4.3645C35.6187 4.3645 35.9958 4.45825 36.3125 4.63117C37.6979 5.427 38.3 8.452 37.8312 12.3458C37.7187 13.3041 37.5354 14.3124 37.3104 15.3416C35.1805 14.8283 33.0188 14.4574 30.8396 14.2312C29.5414 12.4401 28.125 10.7377 26.6 9.13534C29.9229 6.04784 33.0417 4.35617 35.1625 4.35617V2.08325C32.3583 2.08325 28.6896 4.08117 24.9792 7.54575C21.2708 4.10409 17.6 2.12492 14.7979 2.12492V4.39575C16.9083 4.39575 20.0375 6.07909 23.3604 9.14575C21.9333 10.6458 20.5063 12.3458 19.15 14.2312C16.9663 14.4549 14.8007 14.8294 12.6687 15.352C12.4333 14.3333 12.2604 13.3458 12.1375 12.3978C11.6583 8.502 12.25 5.477 13.6271 4.67284C13.9312 4.4895 14.3292 4.40617 14.7979 4.40617V2.13534C13.9437 2.13534 13.1667 2.31867 12.4958 2.70409C9.63125 4.35617 8.98958 9.502 10.4667 15.9645C4.12708 17.9228 0 21.0499 0 24.352C0 27.6645 4.14792 30.8041 10.5083 32.7478C9.03958 39.2312 9.69167 44.3895 12.5667 46.0395C13.2292 46.427 14.0042 46.6103 14.8583 46.6103C17.6625 46.6103 21.3313 44.6124 25.0417 41.1478C28.75 44.5916 32.4187 46.5687 35.2229 46.5687C36.0273 46.5857 36.8217 46.3887 37.525 45.9978C40.3896 44.3478 41.0312 39.202 39.5542 32.7395C45.8729 30.7937 50 27.6541 50 24.352ZM36.7292 17.5541C36.3333 18.9163 35.8745 20.2594 35.3542 21.5791C34.5024 19.9223 33.5672 18.3098 32.5521 16.7478C34 16.9624 35.3958 17.227 36.7312 17.5541H36.7292ZM32.0625 28.4083C31.2687 29.7833 30.4521 31.0895 29.6062 32.302C26.5484 32.5715 23.473 32.575 20.4146 32.3124C18.6603 29.8065 17.1261 27.1536 15.8292 24.3833C17.1241 21.6064 18.6518 18.9441 20.3958 16.4249C23.4529 16.1549 26.5276 16.1507 29.5854 16.4124C30.4312 17.6249 31.2583 18.9208 32.0521 20.2874C32.8271 21.6208 33.5312 22.9749 34.1729 24.3416C33.5241 25.7248 32.8201 27.0815 32.0625 28.4083V28.4083ZM35.3542 27.0833C35.9042 28.4478 36.375 29.8145 36.7604 31.1395C35.4271 31.4666 34.0187 31.7416 32.5625 31.9541C33.5734 30.3779 34.5051 28.7522 35.3542 27.0833V27.0833ZM25.0208 37.9583C24.0729 36.9791 23.125 35.8895 22.1875 34.6958C23.1042 34.7374 24.0417 34.7687 24.9896 34.7687C25.9479 34.7687 26.8958 34.7478 27.8229 34.6958C26.9062 35.8895 25.9583 36.9791 25.0208 37.9583ZM17.4375 31.9541C16.0328 31.7506 14.6383 31.4822 13.2583 31.1499C13.6354 29.8353 14.1042 28.4791 14.6333 27.1249C15.0521 27.9374 15.4917 28.7541 15.9708 29.5708C16.45 30.3853 16.9375 31.1812 17.4375 31.9541ZM24.9687 10.7458C25.9167 11.7249 26.8646 12.8145 27.8021 14.0083C26.8854 13.9666 25.9479 13.9353 25 13.9353C24.0417 13.9353 23.0937 13.9562 22.1667 14.0083C23.0833 12.8145 24.0312 11.7249 24.9687 10.7458ZM17.4271 16.7499C16.4164 18.3227 15.4847 19.9448 14.6354 21.6103C14.1004 20.2821 13.6311 18.9284 13.2292 17.5541C14.5625 17.2374 15.9708 16.9624 17.4271 16.7499ZM8.20417 29.5083C4.59583 27.9708 2.2625 25.952 2.2625 24.352C2.2625 22.752 4.59583 20.7228 8.20417 19.1958C9.07917 18.8187 10.0375 18.4812 11.0271 18.1666C11.6083 20.1624 12.3729 22.2416 13.3187 24.3728C12.4258 26.3774 11.6705 28.4405 11.0583 30.5478C10.0905 30.2482 9.13799 29.9012 8.20417 29.5083V29.5083ZM13.6875 44.0708C12.3021 43.2791 11.7 40.2499 12.1687 36.3583C12.2812 35.3999 12.4646 34.3895 12.6896 33.3603C14.6854 33.8499 16.8667 34.227 19.1604 34.4728C20.4587 36.2639 21.875 37.9662 23.4 39.5687C20.0771 42.6562 16.9583 44.3478 14.8375 44.3478C14.4374 44.3522 14.0424 44.2577 13.6875 44.0728V44.0708ZM37.8625 36.3062C38.3417 40.1999 37.75 43.227 36.3729 44.0312C36.0687 44.2145 35.6708 44.2958 35.2021 44.2958C33.0917 44.2958 29.9625 42.6145 26.6396 39.5458C28.0667 38.0499 29.4937 36.3478 30.85 34.4624C33.0337 34.2387 35.1993 33.8642 37.3312 33.3416C37.5667 34.3708 37.7479 35.3583 37.8625 36.3062V36.3062ZM41.7854 29.5083C40.9104 29.8853 39.9521 30.2228 38.9625 30.5374C38.3395 28.4193 37.5739 26.3458 36.6708 24.3312C37.6083 22.2124 38.3604 20.1437 38.9312 18.1562C39.9417 18.4708 40.8979 18.8187 41.7958 19.1958C45.4042 20.7333 47.7375 22.752 47.7375 24.352C47.7271 25.952 45.3937 27.9812 41.7854 29.5083V29.5083Z" fill="#353535"/>
<path d="M24.9901 29.0105C26.2256 29.0105 27.4105 28.5197 28.2841 27.6461C29.1577 26.7725 29.6485 25.5876 29.6485 24.3522C29.6485 23.1167 29.1577 21.9318 28.2841 21.0582C27.4105 20.1846 26.2256 19.6938 24.9901 19.6938C23.7547 19.6938 22.5698 20.1846 21.6962 21.0582C20.8226 21.9318 20.3318 23.1167 20.3318 24.3522C20.3318 25.5876 20.8226 26.7725 21.6962 27.6461C22.5698 28.5197 23.7547 29.0105 24.9901 29.0105V29.0105Z" fill="#353535"/>
</svg>
