<svg width="50" height="50" viewBox="0 0 50 50" fill="none" xmlns="http://www.w3.org/2000/svg">
<path d="M24.9999 3.1251C24.2124 3.1251 23.4437 3.4126 22.8515 4.00478L18.4562 8.44697C18.2187 8.5751 18.0187 8.75947 17.8718 8.98447L4.00307 22.8517C3.43421 23.422 3.11475 24.1946 3.11475 25.0001C3.11475 25.8056 3.43421 26.5782 4.00307 27.1485L22.8515 45.997C23.4234 46.5628 24.1954 46.8802 24.9999 46.8802C25.8045 46.8802 26.5765 46.5628 27.1484 45.997L45.9968 27.1485C46.5657 26.5782 46.8852 25.8056 46.8852 25.0001C46.8852 24.1946 46.5657 23.422 45.9968 22.8517L27.1468 4.00322C26.865 3.7219 26.5301 3.49939 26.1615 3.34864C25.793 3.19789 25.3981 3.12191 24.9999 3.1251V3.1251ZM24.9999 6.29853L43.7015 25.0001L24.9999 43.7017L6.29838 25.0001L19.239 12.061L21.9734 14.7954C21.9032 15.0662 21.8701 15.3454 21.8749 15.6251C21.8749 16.7782 22.5031 17.7673 23.4374 18.311V31.6892C22.5031 32.2329 21.8749 33.2204 21.8749 34.3751C21.8749 35.2039 22.2042 35.9988 22.7902 36.5848C23.3763 37.1709 24.1711 37.5001 24.9999 37.5001C25.8288 37.5001 26.6236 37.1709 27.2097 36.5848C27.7957 35.9988 28.1249 35.2039 28.1249 34.3751C28.1249 33.222 27.4968 32.2329 26.5624 31.6892V19.4345L31.3484 24.2188C31.2288 24.6807 31.2166 25.1638 31.3128 25.6312C31.4089 26.0985 31.6109 26.5375 31.9031 26.9147C32.1953 27.2918 32.57 27.597 32.9985 27.8068C33.427 28.0167 33.8979 28.1255 34.3749 28.1251C36.0999 28.1251 37.4984 26.7267 37.4984 25.0001C37.4991 24.5229 37.3904 24.0518 37.1806 23.6231C36.9709 23.1945 36.6658 22.8195 36.2886 22.5271C35.9114 22.2348 35.4723 22.0327 35.0048 21.9365C34.5374 21.8402 34.0541 21.8524 33.5921 21.972L28.0265 16.4063C28.1461 15.9445 28.1583 15.4613 28.0621 14.994C27.966 14.5267 27.764 14.0877 27.4718 13.7105C27.1796 13.3334 26.8049 13.0282 26.3764 12.8184C25.9479 12.6085 25.477 12.4997 24.9999 12.5001C24.7207 12.4954 24.4422 12.5285 24.1718 12.5985L21.4374 9.86416L24.9999 6.29853Z" fill="#353535"/>
</svg>
