<svg width="120" height="120" viewBox="0 0 120 120" fill="none" xmlns="http://www.w3.org/2000/svg">
<path d="M45 30H25V50H35V40H45V30ZM95 50H85V60H75V70H95V50ZM105 80H15V20H105V80ZM105 10H15C9.45 10 5 14.45 5 20V80C5 82.6522 6.05357 85.1957 7.92893 87.0711C9.8043 88.9464 12.3478 90 15 90H50V100H40V110H80V100H70V90H105C107.652 90 110.196 88.9464 112.071 87.0711C113.946 85.1957 115 82.6522 115 80V20C115 17.3478 113.946 14.8043 112.071 12.9289C110.196 11.0536 107.652 10 105 10Z" fill="#5074A9"/>
</svg>
