<svg width="120" height="120" viewBox="0 0 120 120" fill="none" xmlns="http://www.w3.org/2000/svg">
<path d="M36.875 83.9059L43.125 76.0959L23.005 60.0009L43.125 43.9059L36.875 36.0959L11.875 56.0959C11.2892 56.5643 10.8163 57.1585 10.4913 57.8345C10.1664 58.5104 9.99762 59.2509 9.99762 60.0009C9.99762 60.7509 10.1664 61.4913 10.4913 62.1673C10.8163 62.8433 11.2892 63.4375 11.875 63.9059L36.875 83.9059ZM83.125 36.0959L76.875 43.9059L96.995 60.0009L76.875 76.0959L83.125 83.9059L108.125 63.9059C108.711 63.4375 109.184 62.8433 109.509 62.1673C109.834 61.4913 110.002 60.7509 110.002 60.0009C110.002 59.2509 109.834 58.5104 109.509 57.8345C109.184 57.1585 108.711 56.5643 108.125 56.0959L83.125 36.0959ZM74.88 16.0809L54.88 106.081L45.115 103.911L65.115 13.9109L74.88 16.0809Z" fill="#D76D6D"/>
</svg>
