<svg width="120" height="120" viewBox="0 0 120 120" fill="none" xmlns="http://www.w3.org/2000/svg">
<path fill-rule="evenodd" clip-rule="evenodd" d="M97.32 83.7359C103.584 60.3599 88.752 36.2159 64.386 29.6879C36.87 22.3079 -2.18401 41.4719 6.50399 66.0539C9.38399 74.1839 14.928 76.0859 25.386 76.2359L26.04 76.2479C31.566 76.3139 33.12 76.6739 33.588 77.4299C34.35 78.6779 34.362 80.6639 33.504 86.1299C33.096 88.7099 32.964 89.6099 32.808 91.0199C31.854 99.6059 33.306 106.302 38.928 112.362C56.496 131.28 90.246 110.124 97.32 83.7359ZM17.82 62.0459C13.446 49.6859 41.436 35.9519 61.278 41.2679C79.38 46.1219 90.234 63.7919 85.728 80.6219C80.7 99.3899 57.036 114.222 47.724 104.19C44.844 101.094 44.13 97.7819 44.736 92.3399C44.862 91.1759 44.982 90.3719 45.36 87.9839C46.674 79.6019 46.656 75.7739 43.812 71.1479C40.248 65.3459 36.012 64.3679 26.19 64.2419L25.554 64.2299C19.77 64.1519 18.396 63.6779 17.814 62.0459H17.82Z" fill="#51AE66"/>
<path d="M36 60C34.0109 60 32.1032 59.2098 30.6967 57.8033C29.2902 56.3968 28.5 54.4891 28.5 52.5C28.5 50.5109 29.2902 48.6032 30.6967 47.1967C32.1032 45.7902 34.0109 45 36 45C37.9891 45 39.8968 45.7902 41.3033 47.1967C42.7098 48.6032 43.5 50.5109 43.5 52.5C43.5 54.4891 42.7098 56.3968 41.3033 57.8033C39.8968 59.2098 37.9891 60 36 60Z" fill="#51AE66"/>
<path d="M58.5 60C56.5109 60 54.6032 59.2098 53.1967 57.8033C51.7902 56.3968 51 54.4891 51 52.5C51 50.5109 51.7902 48.6032 53.1967 47.1967C54.6032 45.7902 56.5109 45 58.5 45C60.4891 45 62.3968 45.7902 63.8033 47.1967C65.2098 48.6032 66 50.5109 66 52.5C66 54.4891 65.2098 56.3968 63.8033 57.8033C62.3968 59.2098 60.4891 60 58.5 60Z" fill="#51AE66"/>
<path d="M73.5 78C71.5109 78 69.6032 77.2098 68.1967 75.8033C66.7902 74.3968 66 72.4891 66 70.5C66 68.5109 66.7902 66.6032 68.1967 65.1967C69.6032 63.7902 71.5109 63 73.5 63C75.4891 63 77.3968 63.7902 78.8033 65.1967C80.2098 66.6032 81 68.5109 81 70.5C81 72.4891 80.2098 74.3968 78.8033 75.8033C77.3968 77.2098 75.4891 78 73.5 78Z" fill="#51AE66"/>
<path d="M64.5 99C62.5109 99 60.6032 98.2098 59.1967 96.8033C57.7902 95.3968 57 93.4891 57 91.5C57 89.5109 57.7902 87.6032 59.1967 86.1967C60.6032 84.7902 62.5109 84 64.5 84C66.4891 84 68.3968 84.7902 69.8033 86.1967C71.2098 87.6032 72 89.5109 72 91.5C72 93.4891 71.2098 95.3968 69.8033 96.8033C68.3968 98.2098 66.4891 99 64.5 99Z" fill="#51AE66"/>
<path d="M86.22 21.6294C86.9314 21.2483 87.7124 21.0146 88.5163 20.9423C89.3202 20.87 90.1303 20.9607 90.8983 21.2089C91.6663 21.457 92.3764 21.8576 92.9859 22.3866C93.5955 22.9155 94.0921 23.5621 94.446 24.2874L119.004 74.6874C119.414 75.5934 119.464 76.6215 119.143 77.5627C118.822 78.5039 118.155 79.2876 117.277 79.7545C116.399 80.2214 115.376 80.3364 114.416 80.0761C113.456 79.8159 112.632 79.1999 112.11 78.3534L83.862 29.9334C83.4559 29.2369 83.1947 28.4655 83.094 27.6656C82.9933 26.8656 83.0552 26.0536 83.2759 25.2781C83.4967 24.5026 83.8718 23.7798 84.3787 23.1528C84.8856 22.5258 85.514 22.0077 86.226 21.6294H86.22Z" fill="#51AE66"/>
<path fill-rule="evenodd" clip-rule="evenodd" d="M75.222 20.9031C78.144 26.3931 83.058 27.9291 87.81 25.4031C92.556 22.8831 94.038 17.9451 91.116 12.4551C87.78 6.16711 80.628 0.467113 75.888 2.98111C71.148 5.50111 71.88 14.6151 75.228 20.9031H75.222ZM80.52 18.0831C79.4575 15.9497 78.8062 13.6354 78.6 11.2611C78.5107 10.2685 78.547 9.26862 78.708 8.28511L78.816 8.33911C79.116 8.48311 80.046 8.91511 81.234 9.86311C83.046 11.3091 84.846 13.4391 85.818 15.2691C87.192 17.8491 86.802 19.1451 84.99 20.1111C83.19 21.0711 81.894 20.6631 80.52 18.0891V18.0831Z" fill="#51AE66"/>
</svg>
