<svg width="88" height="55" viewBox="0 0 88 55" fill="none" xmlns="http://www.w3.org/2000/svg">
<path d="M39.85 5.9V41H31.3V19.95L23.45 41H16.55L8.65 19.9V41H0.1V5.9H10.2L20.05 30.2L29.8 5.9H39.85ZM87.4457 17.2C87.4457 19.2333 86.979 21.1 86.0457 22.8C85.1124 24.4667 83.679 25.8167 81.7457 26.85C79.8124 27.8833 77.4124 28.4 74.5457 28.4H69.2457V41H60.6957V5.9H74.5457C77.3457 5.9 79.7124 6.38333 81.6457 7.35C83.579 8.31666 85.029 9.65 85.9957 11.35C86.9624 13.05 87.4457 15 87.4457 17.2ZM73.8957 21.6C75.529 21.6 76.7457 21.2167 77.5457 20.45C78.3457 19.6833 78.7457 18.6 78.7457 17.2C78.7457 15.8 78.3457 14.7167 77.5457 13.95C76.7457 13.1833 75.529 12.8 73.8957 12.8H69.2457V21.6H73.8957Z" fill="#353535"/>
<path d="M50.2484 10.2C48.7484 10.2 47.5151 9.76666 46.5484 8.9C45.6151 8 45.1484 6.9 45.1484 5.6C45.1484 4.26667 45.6151 3.16666 46.5484 2.3C47.5151 1.4 48.7484 0.949997 50.2484 0.949997C51.7151 0.949997 52.9151 1.4 53.8484 2.3C54.8151 3.16666 55.2984 4.26667 55.2984 5.6C55.2984 6.9 54.8151 8 53.8484 8.9C52.9151 9.76666 51.7151 10.2 50.2484 10.2ZM54.5484 44.6C54.5484 48.0333 53.6818 50.5 51.9484 52C50.2151 53.5333 47.7984 54.3 44.6984 54.3H41.3484V47.05H43.3984C44.3318 47.05 44.9984 46.8667 45.3984 46.5C45.7984 46.1333 45.9984 45.5333 45.9984 44.7V13.1H54.5484V44.6Z" fill="#D76D6D"/>
</svg>
