<svg width="32" height="32" viewBox="0 0 32 32" fill="none" xmlns="http://www.w3.org/2000/svg">
<g clip-path="url(#clip0_457:10)">
<path d="M9.25002 6.005C10.188 6.005 11.036 6.083 11.813 6.255C12.579 6.427 13.24 6.693 13.792 7.068C14.339 7.443 14.766 7.933 15.073 8.563C15.37 9.188 15.526 9.964 15.526 10.87C15.526 11.854 15.297 12.683 14.849 13.349C14.396 14.016 13.734 14.547 12.844 14.974C14.052 15.323 14.948 15.932 15.542 16.802C16.141 17.682 16.427 18.734 16.427 19.948C16.427 20.948 16.255 21.802 15.88 22.521C15.52 23.2395 14.9887 23.8583 14.333 24.323C13.692 24.787 12.932 25.12 12.109 25.344C11.2786 25.5682 10.4222 25.6822 9.56202 25.683H-0.000976562V6.016H9.24902L9.25002 6.005ZM22.589 22.219C23.172 22.792 24.016 23.078 25.115 23.078C25.901 23.078 26.579 22.88 27.151 22.479C27.719 22.094 28.057 21.666 28.193 21.229H31.641C31.105 22.932 30.245 24.161 29.11 24.896C27.975 25.641 26.6 26 25.006 26C23.886 26 22.891 25.828 21.975 25.469C21.1125 25.129 20.3315 24.6107 19.683 23.948C19.063 23.297 18.584 22.51 18.245 21.589C17.906 20.668 17.745 19.657 17.745 18.563C17.745 17.49 17.927 16.511 18.287 15.589C18.6219 14.7037 19.1282 13.8932 19.777 13.204C20.438 12.522 21.194 12.011 22.095 11.61C22.991 11.209 23.96 11.032 25.053 11.032C26.267 11.032 27.308 11.251 28.225 11.73C29.0964 12.1735 29.8539 12.8117 30.439 13.595C31.028 14.376 31.439 15.277 31.694 16.293C31.949 17.293 32.027 18.345 31.975 19.465H21.72C21.72 20.585 22.095 21.642 22.668 22.215L22.559 22.257L22.589 22.219ZM8.93202 22.286C9.35402 22.286 9.76002 22.244 10.14 22.161C10.5003 22.0903 10.8446 21.9544 11.156 21.76C11.437 21.583 11.677 21.322 11.854 20.984C12.026 20.666 12.104 20.224 12.104 19.703C12.104 18.703 11.812 17.984 11.25 17.547C10.677 17.12 9.93202 16.906 9.00002 16.906H4.31802V22.307H8.93302V22.265L8.93202 22.286ZM27.078 14.755C26.604 14.239 25.823 13.963 24.864 13.963C24.244 13.963 23.729 14.062 23.312 14.281C22.9289 14.4681 22.5911 14.7363 22.322 15.067C22.0823 15.3616 21.9051 15.7018 21.801 16.067C21.7081 16.3757 21.6487 16.6936 21.624 17.015H27.973C27.879 16.015 27.53 15.281 27.067 14.76V14.776L27.078 14.755ZM8.69302 13.932C9.45902 13.932 10.094 13.755 10.594 13.385C11.094 13.026 11.334 12.421 11.334 11.599C11.334 11.141 11.24 10.766 11.094 10.474C10.9319 10.1947 10.7027 9.96028 10.427 9.792C10.1293 9.61962 9.80262 9.50304 9.46302 9.448C9.09387 9.37817 8.71871 9.34501 8.34302 9.349H4.30702V13.932H8.69302ZM20.823 7.323H28.781V9.26H20.823V7.307V7.323Z" fill="#353535"/>
</g>
<defs>
<clipPath id="clip0_457:10">
<rect width="32" height="32" fill="white"/>
</clipPath>
</defs>
</svg>
