<svg width="32" height="32" viewBox="0 0 32 32" fill="none" xmlns="http://www.w3.org/2000/svg">
<path d="M16.3253 5.33331C17.0373 5.33731 18.8187 5.35465 20.712 5.43065L21.384 5.45998C23.2893 5.54931 25.1933 5.70398 26.1387 5.96665C27.3987 6.32131 28.388 7.35331 28.7227 8.66265C29.256 10.7426 29.3227 14.7986 29.3307 15.7813L29.332 15.984V16.216C29.3227 17.1986 29.256 21.256 28.7227 23.3346C28.384 24.648 27.3933 25.6813 26.1387 26.0306C25.1933 26.2933 23.2893 26.448 21.384 26.5373L20.712 26.568C18.8187 26.6426 17.0373 26.6613 16.3253 26.664L16.012 26.6653H15.672C14.1653 26.656 7.86399 26.588 5.85866 26.0306C4.59999 25.676 3.60932 24.644 3.27466 23.3346C2.74132 21.2546 2.67466 17.1986 2.66666 16.216V15.7813C2.67466 14.7986 2.74132 10.7413 3.27466 8.66265C3.61332 7.34931 4.60399 6.31598 5.85999 5.96798C7.86399 5.40931 14.1667 5.34131 15.6733 5.33331H16.3253ZM13.332 11.3333V20.6666L21.332 16L13.332 11.3333Z" fill="white"/>
</svg>
